<mxfile host="app.diagrams.net" modified="2021-01-15T08:18:55.645Z" agent="5.0 (Windows NT 10.0; Win64; x64) AppleWebKit/537.36 (KHTML, like Gecko) Chrome/75.0.3770.142 Safari/537.36" etag="EsrtnyIBtm2gb7XHv5rS" version="14.2.3" type="github">
  <diagram id="FZmo_DAPJ7RXnn2Nyj6V" name="Page-1">
    <mxGraphModel dx="782" dy="436" grid="1" gridSize="10" guides="1" tooltips="1" connect="1" arrows="1" fold="1" page="1" pageScale="1" pageWidth="827" pageHeight="1169" math="0" shadow="0">
      <root>
        <mxCell id="0" />
        <mxCell id="1" parent="0" />
        <mxCell id="d6iXA5ccp46pSwK4ROSy-7" style="edgeStyle=orthogonalEdgeStyle;rounded=0;orthogonalLoop=1;jettySize=auto;html=1;exitX=0.5;exitY=1;exitDx=0;exitDy=0;entryX=0.5;entryY=0;entryDx=0;entryDy=0;" edge="1" parent="1" source="d6iXA5ccp46pSwK4ROSy-3" target="d6iXA5ccp46pSwK4ROSy-6">
          <mxGeometry relative="1" as="geometry" />
        </mxCell>
        <mxCell id="d6iXA5ccp46pSwK4ROSy-3" value="输出i" style="shape=parallelogram;perimeter=parallelogramPerimeter;whiteSpace=wrap;html=1;fixedSize=1;rounded=0;" vertex="1" parent="1">
          <mxGeometry x="280" y="330" width="120" height="60" as="geometry" />
        </mxCell>
        <mxCell id="d6iXA5ccp46pSwK4ROSy-6" value="结束" style="rounded=1;whiteSpace=wrap;html=1;arcSize=50;" vertex="1" parent="1">
          <mxGeometry x="280" y="410" width="120" height="60" as="geometry" />
        </mxCell>
        <mxCell id="d6iXA5ccp46pSwK4ROSy-8" value="" style="group" vertex="1" connectable="0" parent="1">
          <mxGeometry x="280" y="130" width="120" height="160" as="geometry" />
        </mxCell>
        <mxCell id="d6iXA5ccp46pSwK4ROSy-1" value="开始" style="rounded=1;whiteSpace=wrap;html=1;arcSize=50;" vertex="1" parent="d6iXA5ccp46pSwK4ROSy-8">
          <mxGeometry width="120" height="60" as="geometry" />
        </mxCell>
        <mxCell id="d6iXA5ccp46pSwK4ROSy-2" value="i=10" style="rounded=0;whiteSpace=wrap;html=1;" vertex="1" parent="d6iXA5ccp46pSwK4ROSy-8">
          <mxGeometry y="100" width="120" height="60" as="geometry" />
        </mxCell>
        <mxCell id="d6iXA5ccp46pSwK4ROSy-5" style="edgeStyle=orthogonalEdgeStyle;rounded=0;orthogonalLoop=1;jettySize=auto;html=1;exitX=0.5;exitY=1;exitDx=0;exitDy=0;entryX=0.5;entryY=0;entryDx=0;entryDy=0;" edge="1" parent="d6iXA5ccp46pSwK4ROSy-8" source="d6iXA5ccp46pSwK4ROSy-1" target="d6iXA5ccp46pSwK4ROSy-2">
          <mxGeometry relative="1" as="geometry" />
        </mxCell>
        <mxCell id="d6iXA5ccp46pSwK4ROSy-4" value="" style="edgeStyle=orthogonalEdgeStyle;rounded=0;orthogonalLoop=1;jettySize=auto;html=1;" edge="1" parent="1" source="d6iXA5ccp46pSwK4ROSy-2" target="d6iXA5ccp46pSwK4ROSy-3">
          <mxGeometry relative="1" as="geometry" />
        </mxCell>
        <mxCell id="d6iXA5ccp46pSwK4ROSy-9" value="" style="group" vertex="1" connectable="0" parent="1">
          <mxGeometry x="520" y="160" width="120" height="160" as="geometry" />
        </mxCell>
        <mxCell id="d6iXA5ccp46pSwK4ROSy-10" value="开始" style="rounded=1;whiteSpace=wrap;html=1;arcSize=50;" vertex="1" parent="d6iXA5ccp46pSwK4ROSy-9">
          <mxGeometry width="120" height="60" as="geometry" />
        </mxCell>
        <mxCell id="d6iXA5ccp46pSwK4ROSy-11" value="i=10" style="rounded=0;whiteSpace=wrap;html=1;" vertex="1" parent="d6iXA5ccp46pSwK4ROSy-9">
          <mxGeometry y="100" width="120" height="60" as="geometry" />
        </mxCell>
        <mxCell id="d6iXA5ccp46pSwK4ROSy-12" style="edgeStyle=orthogonalEdgeStyle;rounded=0;orthogonalLoop=1;jettySize=auto;html=1;exitX=0.5;exitY=1;exitDx=0;exitDy=0;entryX=0.5;entryY=0;entryDx=0;entryDy=0;" edge="1" parent="d6iXA5ccp46pSwK4ROSy-9" source="d6iXA5ccp46pSwK4ROSy-10" target="d6iXA5ccp46pSwK4ROSy-11">
          <mxGeometry relative="1" as="geometry" />
        </mxCell>
      </root>
    </mxGraphModel>
  </diagram>
</mxfile>
